HIERARCHY
ROOT Hips
{
	OFFSET	0.00	0.00	0.00
	CHANNELS 6 Xposition Yposition Zposition Zrotation Xrotation Yrotation
	JOINT LeftUpLeg
	{
		OFFSET	 0.126116	-0.014019	-0.065224
		CHANNELS 3 Zrotation Xrotation Yrotation
		JOINT LeftLeg
		{
			OFFSET	 0.000000	 0.000000	 0.569914
			CHANNELS 3 Zrotation Xrotation Yrotation
			JOINT LeftFoot
			{
				OFFSET	 0.000000	 0.000000	 0.544423
				CHANNELS 3 Zrotation Xrotation Yrotation
				JOINT LeftToeBase
				{
					OFFSET	 0.000000	 0.000000	 0.207117
					CHANNELS 3 Zrotation Xrotation Yrotation
					End Site
					{
						OFFSET	 0.000000	 0.000000	 0.207117
					}
				}
			}
		}
	}
	JOINT RightUpLeg
	{
		OFFSET	-0.124023	-0.008373	-0.065224
		CHANNELS 3 Zrotation Xrotation Yrotation
		JOINT RightLeg
		{
			OFFSET	 0.000000	 0.000000	 0.570047
			CHANNELS 3 Zrotation Xrotation Yrotation
			JOINT RightFoot
			{
				OFFSET	 0.000000	 0.000000	 0.544354
				CHANNELS 3 Zrotation Xrotation Yrotation
				JOINT RightToeBase
				{
					OFFSET	 0.000000	 0.000000	 0.207540
					CHANNELS 3 Zrotation Xrotation Yrotation
					End Site
					{
						OFFSET	 0.000000	 0.000000	 0.207540
					}
				}
			}
		}
	}
	JOINT Spine
	{
		OFFSET	 0.000184	-0.007763	 0.117403
		CHANNELS 3 Zrotation Xrotation Yrotation
		JOINT Spine1
		{
			OFFSET	 0.000000	 0.000000	 0.137269
			CHANNELS 3 Zrotation Xrotation Yrotation
			JOINT Spine2
			{
				OFFSET	 0.000000	 0.000000	 0.156879
				CHANNELS 3 Zrotation Xrotation Yrotation
				JOINT LeftShoulder
				{
					OFFSET	 0.080501	-0.002496	 0.160144
					CHANNELS 3 Zrotation Xrotation Yrotation
					JOINT LeftArm
					{
						OFFSET	 0.000000	 0.000000	 0.164363
						CHANNELS 3 Zrotation Xrotation Yrotation
						JOINT LeftForeArm
						{
							OFFSET	 0.000000	 0.000000	 0.364576
							CHANNELS 3 Zrotation Xrotation Yrotation
							JOINT LeftHand
							{
								OFFSET	 0.000000	 0.000000	 0.360812
								CHANNELS 3 Zrotation Xrotation Yrotation
								JOINT LeftHandIndex1
								{
									OFFSET	 0.000000	 0.000000	 0.086006
									CHANNELS 3 Zrotation Xrotation Yrotation
									JOINT LeftHandIndex2
									{
										OFFSET	 0.000000	 0.000000	 0.047236
										CHANNELS 3 Zrotation Xrotation Yrotation
										JOINT LeftHandIndex3
										{
											OFFSET	-0.004284	-0.000551	 0.038166
											CHANNELS 3 Zrotation Xrotation Yrotation
											End Site
											{
												OFFSET	-0.004284	-0.000551	 0.038166
											}
										}
									}
								}
							}
						}
					}
				}
				JOINT Neck
				{
					OFFSET	 0.000000	 0.000000	 0.176489
					CHANNELS 3 Zrotation Xrotation Yrotation
					JOINT Head
					{
						OFFSET	 0.000000	-0.001747	 0.077940
						CHANNELS 3 Zrotation Xrotation Yrotation
						End Site
						{
							OFFSET	 0.000000	-0.001747	 0.077940
						}
					}
				}
				JOINT RightShoulder
				{
					OFFSET	-0.080363	 0.000306	 0.159706
					CHANNELS 3 Zrotation Xrotation Yrotation
					JOINT RightArm
					{
						OFFSET	 0.000000	 0.000000	 0.164196
						CHANNELS 3 Zrotation Xrotation Yrotation
						JOINT RightForeArm
						{
							OFFSET	 0.000000	 0.000000	 0.365611
							CHANNELS 3 Zrotation Xrotation Yrotation
							JOINT RightHand
							{
								OFFSET	 0.000000	 0.000000	 0.360648
								CHANNELS 3 Zrotation Xrotation Yrotation
								JOINT RightHandIndex1
								{
									OFFSET	 0.000000	 0.000000	 0.069977
									CHANNELS 3 Zrotation Xrotation Yrotation
									JOINT RightHandIndex2
									{
										OFFSET	 0.000000	 0.000000	 0.052305
										CHANNELS 3 Zrotation Xrotation Yrotation
										JOINT RightHandIndex3
										{
											OFFSET	 0.009002	-0.000782	 0.042196
											CHANNELS 3 Zrotation Xrotation Yrotation
											End Site
											{
												OFFSET	 0.009002	-0.000782	 0.042196
											}
										}
									}
								}
							}
						}
					}
				}
			}
		}
	}
}
MOTION
Frames:    8
Frame Time: 0.03333334
-0.044305	 0.233574	 1.019823	 0.497214	 34.245580	-5.954678	-45.132610	-84.533920	 137.636600	 8.403992	-76.000000	 8.562470	-35.390380	 77.603040	 42.683380	-2.385832	 28.452790	-0.000001	 89.833850	-76.042560	-100.832700	-21.304370	-78.061810	-15.826290	 56.216260	 75.445050	-51.992160	 2.384659	 28.388700	-0.000001	-2.814268	 15.448910	 1.886231	-3.157081	 23.046050	 4.686620	 1.958800	-1.714212	 1.087841	-99.007590	 68.239680	 157.209600	 12.900360	-2.860990	-40.392070	-3.588347	 12.613420	-41.005900	-24.284110	-17.464340	-18.293460	-2.027600	 6.559038	 9.033609	-5.188889	 0.308190	 3.541030	-5.234859	 0.342567	 0.430617	 0.020893	 15.620170	-5.175005	 3.789557	-24.825810	 0.576876	 97.334340	 64.558960	-159.464900	-2.568272	 3.462660	 47.128250	-6.493457	 0.681081	 30.454870	 8.458386	-16.315870	 14.395070	 1.803333	 3.979147	-15.098590	 4.898592	 3.004813	-9.310344	 5.224449	 0.395017	 2.014677
-0.043751	 0.232774	 1.031940	 0.185861	 33.286740	-5.367107	-39.223660	-82.454540	 143.844100	 7.394681	-74.544780	 7.532069	-34.430130	 77.028770	 41.407860	-2.385832	 28.452790	-0.000001	 81.172530	-76.024490	-109.676400	-19.777810	-76.436010	-14.240260	 52.918750	 75.188590	-48.524940	 2.384659	 28.388700	-0.000001	-3.046272	 15.594020	 1.934739	-3.009590	 23.784290	 4.631694	 2.511432	-2.929236	 0.661883	-98.510480	 68.749160	 157.990200	 12.661270	-0.434777	-41.779520	-3.280866	 12.399520	-41.179580	-25.338080	-19.284820	-19.182430	-2.027600	 6.559038	 9.033609	-5.188889	 0.308190	 3.541030	-5.234859	 0.342567	 0.430617	-0.487876	 11.268190	-4.121990	 4.071676	-20.602400	 0.083669	 97.077420	 64.144340	-160.485200	-3.165803	 2.937704	 47.658120	-6.058253	 0.960053	 31.061980	 8.547478	-17.629080	 15.723470	 1.803333	 3.979147	-15.098590	 4.898592	 3.004813	-9.310344	 5.224449	 0.395017	 2.014677
-0.042682	 0.232430	 1.045565	-0.105911	 32.111720	-4.772442	-34.672000	-80.065600	 148.734000	 6.500964	-72.854450	 6.612872	-33.292310	 76.429770	 39.916310	-2.385833	 28.452760	 0.000004	 71.382580	-75.520980	-119.636400	-18.545720	-74.568370	-12.932900	 49.820480	 74.851600	-45.192710	 2.384659	 28.388700	-0.000001	-3.341579	 15.787170	 1.971196	-2.916113	 24.377590	 4.586075	 2.939520	-4.267690	 0.270744	-97.729920	 69.823750	 158.829100	 12.950290	 2.661079	-43.291960	-2.947255	 12.112800	-41.247590	-26.701700	-21.584660	-20.604630	-2.027600	 6.559038	 9.033609	-5.188889	 0.308190	 3.541030	-5.234859	 0.342567	 0.430617	-0.867643	 6.065690	-3.004155	 4.178390	-15.650180	-0.732810	 96.759860	 64.256070	-161.188100	-3.969393	 3.430026	 47.839340	-6.100878	 0.961848	 31.802500	 8.718163	-19.263990	 16.752580	 1.803333	 3.979147	-15.098590	 4.898592	 3.004813	-9.310344	 5.224449	 0.395017	 2.014677
-0.040616	 0.232922	 1.062956	-0.354940	 30.583130	-4.105495	-30.625900	-77.045200	 153.213100	 5.838463	-70.567330	 5.901269	-31.637180	 75.686080	 37.756730	-2.385833	 28.452760	 0.000004	 60.085030	-74.222340	-131.047300	-17.455840	-72.077450	-11.729180	 46.554270	 74.340890	-41.527030	 2.384659	 28.388700	-0.000001	-3.686451	 16.056530	 1.959993	-2.815904	 24.879640	 4.430787	 3.296119	-5.773163	-0.037586	-96.390240	 71.949720	 159.710800	 14.045520	 7.019454	-45.503310	-2.570752	 11.712210	-41.141600	-28.693440	-24.737690	-22.430150	-2.027600	 6.559038	 9.033609	-5.188889	 0.308190	 3.541030	-5.234859	 0.342567	 0.430617	-1.161531	-0.096355	-2.300423	 4.362258	-9.769665	-1.357350	 96.101000	 65.314930	-161.999000	-5.139203	 5.326684	 48.188610	-6.412024	 0.797771	 32.761310	 9.347185	-22.072170	 17.848210	 1.803333	 3.979147	-15.098590	 4.898592	 3.004813	-9.310344	 5.224449	 0.395017	 2.014677
-0.038198	 0.233568	 1.079547	-0.466704	 29.136790	-3.548483	-27.896870	-74.169270	 156.375600	 5.514339	-68.270000	 5.512120	-29.905080	 74.959300	 35.507470	-2.385833	 28.452750	 0.000004	 51.177700	-72.442250	-139.986400	-16.356800	-69.636980	-10.526110	 43.787510	 73.804070	-38.410100	 2.384659	 28.388700	-0.000001	-3.970626	 16.287870	 1.896797	-2.726797	 25.205740	 4.197937	 3.508503	-7.059765	-0.189068	-94.895930	 74.292600	 160.349100	 15.596600	 11.069640	-47.757960	-2.223844	 11.340150	-41.027070	-30.706120	-27.866270	-24.160950	-2.027600	 6.559038	 9.033609	-5.188889	 0.308190	 3.541030	-5.234859	 0.342567	 0.430617	-1.374215	-5.554966	-2.200911	 4.548576	-4.545053	-1.610339	 95.331950	 66.797230	-162.764100	-6.352519	 7.687370	 48.648180	-6.758973	 0.596265	 33.741780	 10.243870	-25.260100	 18.797000	 1.803333	 3.979147	-15.098590	 4.898592	 3.004813	-9.310344	 5.224449	 0.395017	 2.014677
-0.034949	 0.233295	 1.098987	-0.401791	 27.407640	-2.969925	-25.676820	-70.698970	 159.222800	 5.372633	-65.517040	 5.271716	-27.717740	 74.101460	 32.688340	-2.385833	 28.452750	 0.000004	 42.987850	-69.803190	-148.188900	-14.180600	-66.856410	-8.317869	 41.011300	 73.202350	-35.656600	 2.384659	 28.388700	-0.000001	-4.272797	 16.449280	 1.733307	-2.652047	 25.480000	 3.839376	 3.654555	-8.536356	-0.245009	-93.113330	 76.822750	 160.987100	 17.922160	 14.903430	-50.238540	-1.745127	 10.963010	-41.202150	-32.980700	-31.633420	-26.345840	-2.027600	 6.559038	 9.033609	-5.188889	 0.308190	 3.541030	-5.234859	 0.342567	 0.430617	-1.623800	-12.030770	-2.553270	 4.696645	 1.605855	-1.715621	 94.455680	 68.528080	-163.619000	-8.035717	 10.359860	 49.049630	-7.083602	 0.402478	 35.316410	 11.457210	-29.246990	 19.747180	 1.803333	 3.979147	-15.098590	 4.898592	 3.004813	-9.310344	 5.224449	 0.395017	 2.014677
-0.029907	 0.230395	 1.122301	 0.217267	 25.906140	-2.498876	-23.711530	-67.049560	 162.056500	 5.121990	-61.985370	 4.863180	-23.963160	 73.043220	 28.414880	-2.385833	 28.452750	 0.000004	 36.595260	-66.470770	-154.311700	-11.919570	-63.488860	-6.066677	 38.742870	 72.262600	-33.321450	 2.384659	 28.388700	-0.000001	-4.414625	 15.781330	 1.037619	-2.756016	 25.470790	 3.298383	 3.749057	-10.015070	-0.392333	-93.612080	 75.871200	 162.583800	 20.204630	 16.412140	-49.250910	-0.857054	 10.919270	-43.296200	-34.753540	-35.387000	-28.965960	-2.027600	 6.559038	 9.033609	-5.188889	 0.308190	 3.541030	-5.234859	 0.342567	 0.430617	-1.669149	-14.074670	-1.528102	 4.733365	 3.560301	-2.391616	 93.927230	 69.361460	-164.455700	-9.921385	 12.751560	 47.853010	-7.442971	 0.163294	 38.053450	 12.685230	-33.418930	 20.746010	 1.803333	 3.979147	-15.098590	 4.898592	 3.004813	-9.310344	 5.224449	 0.395017	 2.014677
-0.024510	 0.225029	 1.151485	 0.947525	 24.335190	-2.037456	-22.303670	-62.489840	 164.503200	 4.697091	-57.274480	 4.305284	-20.130360	 71.424350	 23.974080	-2.385833	 28.452750	 0.000004	 30.909310	-62.159320	-159.636100	-9.708814	-58.942490	-3.910698	 35.160700	 70.861110	-29.717240	 2.384659	 28.388700	-0.000001	-4.527566	 14.469220	 0.407378	-2.700487	 25.343820	 2.630065	 3.650012	-12.113330	-0.425015	-94.220790	 74.393620	 164.229200	 23.212970	 17.506070	-47.133320	 0.308621	 10.903420	-46.427150	-36.761570	-39.877270	-31.568010	-2.027600	 6.559038	 9.033609	-5.188889	 0.308190	 3.541030	-5.234859	 0.342567	 0.430617	-1.745616	-15.014380	-0.988491	 4.700702	 4.373772	-2.595218	 93.898320	 68.348750	-165.783800	-12.203660	 14.102630	 45.217200	-7.762506	-0.100304	 42.110160	 14.064000	-38.140580	 22.094470	 1.803333	 3.979147	-15.098590	 4.898592	 3.004813	-9.310344	 5.224449	 0.395017	 2.014677
